<?xml version="1.0" encoding="UTF-8"?>
<svg version="1.1" xmlns="http://www.w3.org/2000/svg" width="500" height="500">
<path d="M0 0 C1.53692586 1.3147512 3.05786056 2.64841871 4.5625 4 C5.41328125 4.74378906 6.2640625 5.48757813 7.140625 6.25390625 C9.64614459 8.47061595 12.11111129 10.72371049 14.5625 13 C15.15546875 13.53882813 15.7484375 14.07765625 16.359375 14.6328125 C38.67574281 35.78022771 52.22936062 65.31550413 65.00512695 92.67944336 C69.63355006 102.46845754 74.88000549 112.0898637 81.35546875 120.7890625 C83.5625 124 83.5625 124 83.5625 127 C79.61005036 128.86690364 75.64967336 130.71633409 71.6875 132.5625 C70.55957031 133.09552734 69.43164062 133.62855469 68.26953125 134.17773438 C66.65498047 134.92700195 66.65498047 134.92700195 65.0078125 135.69140625 C64.01281738 136.15748291 63.01782227 136.62355957 61.99267578 137.10375977 C61.19071777 137.39951904 60.38875977 137.69527832 59.5625 138 C56.66027656 136.54888828 56.39690612 134.64777155 55.171875 131.671875 C54.71240479 130.56827637 54.25293457 129.46467773 53.77954102 128.32763672 C53.05335571 126.55670654 53.05335571 126.55670654 52.3125 124.75 C47.95048139 114.20789683 47.95048139 114.20789683 43.125 103.875 C37.15499295 91.15330987 35.29031748 76.2123181 32.63525391 62.47729492 C29.15255304 44.53761285 24.32095035 26.00461744 8.5625 15 C-4.56612388 6.62670813 -19.69277967 0.38468776 -35.4375 0 C-36.20707031 -0.03867187 -36.97664062 -0.07734375 -37.76953125 -0.1171875 C-62.14745691 -0.8260771 -86.35986432 9.98249374 -104.4375 26 C-115.66752011 37.49194478 -122.47833267 51.54266124 -128.88006592 66.07559204 C-144.49100928 101.43345397 -144.49100928 101.43345397 -156.4375 116 C-157.613125 117.5778125 -157.613125 117.5778125 -158.8125 119.1875 C-162.94790481 123.61829087 -167.67064357 127.27268758 -172.4375 131 C-173.14003906 131.56847656 -173.84257812 132.13695312 -174.56640625 132.72265625 C-178.81334182 136.01563653 -178.81334182 136.01563653 -181.30859375 135.953125 C-184.43980989 134.55125942 -186.35701752 132.16691201 -188.5625 129.625 C-189.52993271 128.53904895 -190.49738101 127.45311179 -191.46484375 126.3671875 C-192.19936768 125.5333252 -192.19936768 125.5333252 -192.94873047 124.68261719 C-195.31175162 122.01191503 -197.72034845 119.38316758 -200.125 116.75 C-201.56275802 115.16690096 -203.0003598 113.58365992 -204.4375 112 C-203.2007781 108.28983431 -202.10243678 107.91442232 -198.875 105.8125 C-185.97815159 96.60287065 -175.87846579 86.13789728 -169.57958984 71.56396484 C-167.09467608 65.98539187 -164.34498413 60.52933275 -161.625 55.0625 C-161.32259399 54.45307556 -161.02018799 53.84365112 -160.70861816 53.21575928 C-153.68578262 39.10869813 -145.74491699 25.96655856 -135.4375 14 C-134.76589844 13.18402344 -134.09429687 12.36804688 -133.40234375 11.52734375 C-100.10550999 -27.57075324 -39.87572224 -31.41153592 0 0 Z " fill="#94C94C" transform="translate(295.4375,337)"/>
<path d="M0 0 C2.05039168 4.72573811 4.09475857 9.45402426 6.1340332 14.18457031 C6.82581824 15.78713885 7.51912967 17.38904952 8.21411133 18.99023438 C14.98472899 34.59443047 20.46225422 49.61452028 23.5 66.375 C27.629429 89.07224357 27.629429 89.07224357 37 110 C37.45503906 110.75539063 37.91007812 111.51078125 38.37890625 112.2890625 C49.19964783 128.0727006 70.24879881 134.15526005 88.05859375 137.58984375 C111.91090933 140.91586385 135.45200063 131.74763221 154.6796875 118.09765625 C169.16234798 106.98254448 177.22726394 92.23045147 184.875 76 C185.4811121 74.72962709 186.08797589 73.45961256 186.69555664 72.18994141 C189.45265212 66.41896955 192.17553643 60.63228325 194.87890625 54.8359375 C204.48977819 34.27372519 216.83405246 13.83220617 237 2 C240.40505887 2.09252877 242.02393713 3.66469786 244.3125 6.0625 C244.91707031 6.69285156 245.52164062 7.32320312 246.14453125 7.97265625 C248.55731105 10.60893565 250.90090921 13.29902302 253.22265625 16.015625 C255.56641241 18.63239012 258.1120235 21.00253557 260.71484375 23.359375 C262 25 262 25 262 29 C260.48828125 30.28125 260.48828125 30.28125 258.3125 31.5 C253.90595996 34.24277532 250.16794912 37.36079058 246.375 40.875 C245.84946533 41.35646484 245.32393066 41.83792969 244.7824707 42.33398438 C237.7950033 48.87313361 232.35661512 55.342961 228.36328125 64.08203125 C227.95772507 64.93568771 227.55216888 65.78934418 227.13432312 66.66886902 C225.84795966 69.3777614 224.5782571 72.09392452 223.3125 74.8125 C214.32648631 94.10242914 204.52776592 112.28718973 190 128 C189.22914063 128.84046875 188.45828125 129.6809375 187.6640625 130.546875 C170.54506949 148.44673436 145.10708737 158.71018172 120.50634766 159.35595703 C89.67801644 159.58448866 64.20079747 145.29647736 42.625 124.125 C36.4517984 117.92137955 30.72005581 111.52773906 25.5 104.5 C24.74710693 103.49090576 24.74710693 103.49090576 23.97900391 102.46142578 C13.53771508 87.82066611 5.61859343 71.57093492 -2.0625 55.375 C-11.49734897 34.72129433 -11.49734897 34.72129433 -23.78540039 15.72021484 C-25 14 -25 14 -25 11 C-21.21135025 9.16038326 -17.41860225 7.32937928 -13.625 5.5 C-12.54476562 4.97535156 -11.46453125 4.45070313 -10.3515625 3.91015625 C-9.3203125 3.41386719 -8.2890625 2.91757812 -7.2265625 2.40625 C-6.27346191 1.94541016 -5.32036133 1.48457031 -4.33837891 1.00976562 C-2 0 -2 0 0 0 Z " fill="#F8AA28" transform="translate(145,26)"/>
<path d="M0 0 C3.83217232 3.47133525 5.52594124 7.82134821 7.6875 12.4375 C8.10322266 13.29666016 8.51894531 14.15582031 8.94726562 15.04101562 C9.33978516 15.87181641 9.73230469 16.70261719 10.13671875 17.55859375 C10.49467529 18.31454834 10.85263184 19.07050293 11.22143555 19.84936523 C12 22 12 22 12 26 C8.08485817 27.67026343 4.16758124 29.33546716 0.25 31 C-0.8225 31.45761719 -1.895 31.91523438 -3 32.38671875 C-5.97441536 33.64911597 -8.955509 34.89417158 -11.93963623 36.13339233 C-14.16302575 37.06857011 -16.37295786 38.03246382 -18.58447266 38.99536133 C-30.80274672 44.21485762 -42.83943227 47.26578631 -55.875 49.6875 C-85.05885667 54.64866055 -85.05885667 54.64866055 -108 72 C-113.95386088 81.09743543 -118.5506022 90.69546985 -122 101 C-122.23332031 101.68578125 -122.46664063 102.3715625 -122.70703125 103.078125 C-128.78480437 122.49201899 -124.62577687 145.04604934 -116 163 C-100.65459412 191.50800339 -78.60334132 203.89213917 -49.98046875 216.6953125 C-28.59203865 226.29423565 0.87571754 239.97826207 11 263 C10.81849691 265.53626687 10.33698634 266.63650912 8.609375 268.5 C7.68898438 269.2425 7.68898438 269.2425 6.75 270 C2.76360777 273.32682551 -1.0690674 276.78278744 -4.875 280.3125 C-5.44637695 280.84037109 -6.01775391 281.36824219 -6.60644531 281.91210938 C-8.76859351 283.91290323 -10.91676685 285.91676685 -13 288 C-13.99 288 -14.98 288 -16 288 C-17.21875 286.453125 -17.21875 286.453125 -18.5 284.25 C-21.89280787 278.88580999 -26.01059339 274.36434807 -30.36328125 269.78515625 C-31.83894893 268.22641394 -33.29479038 266.64583732 -34.66796875 264.99609375 C-42.91500433 255.4666773 -57.54487319 250.71721449 -68.6875 245.4375 C-99.0385736 231.0458159 -127.71883552 211.8324734 -140 179 C-148.82231987 152.23365482 -148.65032405 126.43178126 -136.00927734 100.92724609 C-125.21626548 80.31765837 -108.62630082 63.61973435 -90 50 C-88.94425781 49.21496094 -87.88851562 48.42992187 -86.80078125 47.62109375 C-70.71806998 36.09189249 -52.01820114 27.75412408 -34.125 19.4375 C-22.19153056 13.88626131 -11.09407418 7.05535348 0 0 Z " fill="#EE2B32" transform="translate(460,122)"/>
<path d="M0 0 C3.68937895 1.6907875 5.08620435 3.26361083 7.3125 6.6875 C16.24531924 19.23637731 26.21874339 28.61572821 40.32958984 34.79882812 C46.25029287 37.46200777 52.06008503 40.36477502 57.875 43.25 C58.53022644 43.57462219 59.18545288 43.89924438 59.86053467 44.23370361 C75.10755842 51.8197911 89.25891272 60.63632756 102 72 C102.70125 72.61875 103.4025 73.2375 104.125 73.875 C117.49974215 86.41382077 126.60382731 104.36903373 131 122 C131.22429687 122.81726563 131.44859375 123.63453125 131.6796875 124.4765625 C136.31002359 144.45677986 132.81240786 165.751297 124 184 C123.59394531 184.86367188 123.18789062 185.72734375 122.76953125 186.6171875 C119.75597857 192.57359368 116.0327231 197.90553986 112.0625 203.25 C111.57257568 203.91161133 111.08265137 204.57322266 110.57788086 205.25488281 C107.05803456 209.8876345 103.18131325 213.96282437 99 218 C97.8553125 219.175625 97.8553125 219.175625 96.6875 220.375 C77.44465357 239.17033838 54.77172988 252.1037565 30.62443542 263.55059814 C27.24689248 265.15302411 23.87271357 266.76243703 20.5 268.375 C19.82029144 268.69964233 19.14058289 269.02428467 18.4402771 269.35876465 C9.19300554 273.79065454 0.31071316 278.49648523 -8.19921875 284.2421875 C-10.6696186 285.79264766 -12.22741187 286.40727815 -15 287 C-16.87034451 283.40400558 -18.71842849 279.79702853 -20.5625 276.1875 C-21.09552734 275.16333984 -21.62855469 274.13917969 -22.17773438 273.08398438 C-22.67724609 272.10107422 -23.17675781 271.11816406 -23.69140625 270.10546875 C-24.15748291 269.19949951 -24.62355957 268.29353027 -25.10375977 267.36010742 C-26 265 -26 265 -25 262 C-22.37060547 260.5612793 -22.37060547 260.5612793 -18.8671875 259.07421875 C-18.2382962 258.80414505 -17.60940491 258.53407135 -16.9614563 258.2558136 C-14.93680679 257.38952136 -12.90608819 256.53856984 -10.875 255.6875 C-9.56079063 255.12660438 -8.24698384 254.56476449 -6.93359375 254.00195312 C-3.62403794 252.58839694 -0.3038208 251.20213187 3.0211792 249.8253479 C4.96719673 249.01368194 6.90483479 248.18416703 8.84228516 247.35229492 C17.11432467 243.85264752 25.27852345 241.56888561 34.125 239.9375 C36.66311786 239.43539727 39.20087703 238.93147805 41.73828125 238.42578125 C42.9701416 238.18424316 44.20200195 237.94270508 45.47119141 237.69384766 C72.39475493 232.75927245 72.39475493 232.75927245 94 217 C96.97945918 212.47944124 99.54376359 207.82063882 102 203 C102.57105469 201.89785156 103.14210937 200.79570312 103.73046875 199.66015625 C107.34867783 192.28973034 109.52674437 185.06580962 111 177 C111.18433594 176.01773438 111.36867187 175.03546875 111.55859375 174.0234375 C115.03242578 150.22922518 105.50883484 126.27742421 92 107.0625 C90.68919138 105.35744434 89.35732375 103.66826445 88 102 C87.45601563 101.31808594 86.91203125 100.63617188 86.3515625 99.93359375 C71.81753603 83.6567994 46.74327502 75.36574573 27.30078125 66.35546875 C7.65064703 57.23037037 -13.26901395 44.68876073 -24 25 C-23.62757773 21.47108814 -22.21176563 19.89072136 -19.6484375 17.5390625 C-18.96136719 16.90226562 -18.27429688 16.26546875 -17.56640625 15.609375 C-16.84324219 14.95453125 -16.12007812 14.2996875 -15.375 13.625 C-14.67503906 12.97789063 -13.97507812 12.33078125 -13.25390625 11.6640625 C-8.91924501 7.67520912 -4.49306527 3.80908158 0 0 Z " fill="#12B6F1" transform="translate(50,95)"/>
<path d="M0 0 C9.07284322 8.16697432 15.08858546 17.76375162 15.9453125 30.14453125 C16.52498554 45.64860043 12.86310931 57.28378874 2.37890625 68.94140625 C-6.8681099 77.79712328 -18.83555582 80.6813154 -31.17382812 80.61523438 C-43.20836236 80.34780028 -52.58065459 76.42981589 -61.49609375 68.25390625 C-72.12993572 56.29753603 -75.39317449 43.9782082 -74.49609375 28.25390625 C-72.80205564 16.42672273 -65.90866475 5.55703859 -56.49609375 -1.74609375 C-38.44904211 -12.68148671 -17.12247162 -13.53348193 0 0 Z " fill="#EC0990" transform="translate(277.49609375,214.74609375)"/>
<path d="M0 0 C4.11785659 2.23861658 7.35115265 5.00081096 10.625 8.3125 C11.14642578 8.83956543 11.66785156 9.36663086 12.20507812 9.90966797 C17.99812669 15.87959014 23.10954919 22.27884415 28 29 C28.46873535 29.6408252 28.9374707 30.28165039 29.42041016 30.94189453 C42.09090548 48.50049973 51.31100739 68.12076669 60.44262695 87.67944336 C65.07105006 97.46845754 70.31750549 107.0898637 76.79296875 115.7890625 C79 119 79 119 79 122 C75.04755036 123.86690364 71.08717336 125.71633409 67.125 127.5625 C65.99707031 128.09552734 64.86914062 128.62855469 63.70703125 129.17773438 C62.63066406 129.67724609 61.55429687 130.17675781 60.4453125 130.69140625 C59.45031738 131.15748291 58.45532227 131.62355957 57.43017578 132.10375977 C56.62821777 132.39951904 55.82625977 132.69527832 55 133 C52.09777656 131.54888828 51.83440612 129.64777155 50.609375 126.671875 C50.14990479 125.56827637 49.69043457 124.46467773 49.21704102 123.32763672 C48.73291748 122.1470166 48.24879395 120.96639648 47.75 119.75 C43.38798139 109.20789683 43.38798139 109.20789683 38.5625 98.875 C32.59249295 86.15330987 30.72781748 71.2123181 28.07275391 57.47729492 C24.47355821 38.93753832 19.46748178 22.04409547 4 10 C4.99 9.67 5.98 9.34 7 9 C6.21625 8.030625 5.4325 7.06125 4.625 6.0625 C3.96371094 5.24458984 3.96371094 5.24458984 3.2890625 4.41015625 C2.0333609 2.86733563 2.0333609 2.86733563 0 2 C0 1.34 0 0.68 0 0 Z " fill="#99CC53" transform="translate(300,342)"/>
<path d="M0 0 C2.05039168 4.72573811 4.09475857 9.45402426 6.1340332 14.18457031 C6.82581824 15.78713885 7.51912967 17.38904952 8.21411133 18.99023438 C14.98472899 34.59443047 20.46225422 49.61452028 23.5 66.375 C28.68865563 96.78719377 28.68865563 96.78719377 46.44921875 120.89453125 C48.59877846 122.3354449 50.76017583 123.70486357 53 125 C52.01 125.495 52.01 125.495 51 126 C48.96855359 125.06553465 46.96466413 124.06775224 45 123 C44.67 123.66 44.34 124.32 44 125 C37.24848087 118.86851834 31.44449993 112.31155322 26 105 C25.46810059 104.29705811 24.93620117 103.59411621 24.38818359 102.86987305 C13.67001592 88.18230945 5.70119619 71.74510659 -2.0625 55.375 C-11.49734897 34.72129433 -11.49734897 34.72129433 -23.78540039 15.72021484 C-25 14 -25 14 -25 11 C-21.21135025 9.16038326 -17.41860225 7.32937928 -13.625 5.5 C-12.54476562 4.97535156 -11.46453125 4.45070313 -10.3515625 3.91015625 C-9.3203125 3.41386719 -8.2890625 2.91757812 -7.2265625 2.40625 C-6.27346191 1.94541016 -5.32036133 1.48457031 -4.33837891 1.00976562 C-2 0 -2 0 0 0 Z " fill="#F8AD30" transform="translate(145,26)"/>
<path d="M0 0 C3.83217232 3.47133525 5.52594124 7.82134821 7.6875 12.4375 C8.10322266 13.29666016 8.51894531 14.15582031 8.94726562 15.04101562 C9.33978516 15.87181641 9.73230469 16.70261719 10.13671875 17.55859375 C10.49467529 18.31454834 10.85263184 19.07050293 11.22143555 19.84936523 C12 22 12 22 12 26 C8.08485817 27.67026343 4.16758124 29.33546716 0.25 31 C-0.8225 31.45761719 -1.895 31.91523438 -3 32.38671875 C-5.97441536 33.64911597 -8.955509 34.89417158 -11.93963623 36.13339233 C-14.16302575 37.06857011 -16.37295786 38.03246382 -18.58447266 38.99536133 C-30.80274672 44.21485762 -42.83943227 47.26578631 -55.875 49.6875 C-75.35077384 53.3761966 -92.9285144 57.23907836 -108 71 C-107.67 70.360625 -107.34 69.72125 -107 69.0625 C-105.92728775 67.23205433 -105.92728775 67.23205433 -106 66 C-110.29 70.29 -114.58 74.58 -119 79 C-119 75.46835586 -118.59481349 75.21133309 -116.2109375 72.8125 C-115.60636719 72.20172607 -115.00179688 71.59095215 -114.37890625 70.96166992 C-113.38697266 69.99064331 -113.38697266 69.99064331 -112.375 69 C-111.69566406 68.33009033 -111.01632812 67.66018066 -110.31640625 66.9699707 C-103.92491782 60.76450542 -97.20215719 55.2299183 -90 50 C-88.94683594 49.21753906 -87.89367187 48.43507812 -86.80859375 47.62890625 C-70.72840018 36.09208098 -52.02015401 27.75503176 -34.125 19.4375 C-22.19153056 13.88626131 -11.09407418 7.05535348 0 0 Z " fill="#EE333A" transform="translate(460,122)"/>
<path d="M0 0 C4.32875344 2.3155648 7.59929028 5.32979347 11 8.8125 C11.50789063 9.32103516 12.01578125 9.82957031 12.5390625 10.35351562 C15.89800637 13.75121654 18.98591536 17.29334077 22 21 C21.67 21.66 21.34 22.32 21 23 C20.34 22.67 19.68 22.34 19 22 C19.30035156 22.61488281 19.60070312 23.22976563 19.91015625 23.86328125 C20.29042969 24.67152344 20.67070312 25.47976563 21.0625 26.3125 C21.63677734 27.51326172 21.63677734 27.51326172 22.22265625 28.73828125 C23 31 23 31 22 34 C21.53851563 33.02160156 21.07703125 32.04320312 20.6015625 31.03515625 C16.24860685 22.1674797 11.98944504 16.04119922 4 10 C4.99 9.67 5.98 9.34 7 9 C6.21625 8.030625 5.4325 7.06125 4.625 6.0625 C3.96371094 5.24458984 3.96371094 5.24458984 3.2890625 4.41015625 C2.0333609 2.86733563 2.0333609 2.86733563 0 2 C0 1.34 0 0.68 0 0 Z " fill="#D0E7B0" transform="translate(300,342)"/>
<path d="M0 0 C2.02787387 2.02787387 2.99419331 3.72503474 4.3125 6.25 C8.57750859 13.97646484 13.56355851 18.43120588 21 23 C20.34 23.33 19.68 23.66 19 24 C16.96855359 23.06553465 14.96466413 22.06775224 13 21 C12.67 21.66 12.34 22.32 12 23 C0.29384966 11.66287016 0.29384966 11.66287016 -4 5 C-3.34 4.67 -2.68 4.34 -2 4 C-1.01 4.99 -0.02 5.98 1 7 C0.67 4.69 0.34 2.38 0 0 Z " fill="#FBD088" transform="translate(177,128)"/>
<path d="M0 0 C0.66 0.33 1.32 0.66 2 1 C1.01 2.32 0.02 3.64 -1 5 C-0.01 5.66 0.98 6.32 2 7 C1.03900391 7.54527344 1.03900391 7.54527344 0.05859375 8.1015625 C-5.47377716 11.3170985 -10.27462786 14.68552979 -15 19 C-14.67 18.360625 -14.34 17.72125 -14 17.0625 C-12.92728775 15.23205433 -12.92728775 15.23205433 -13 14 C-17.29 18.29 -21.58 22.58 -26 27 C-26 24 -26 24 -24.79760742 22.42529297 C-24.23920166 21.86986816 -23.6807959 21.31444336 -23.10546875 20.7421875 C-22.48422119 20.12029541 -21.86297363 19.49840332 -21.22290039 18.85766602 C-20.55121826 18.20338623 -19.87953613 17.54910645 -19.1875 16.875 C-18.51130615 16.20718506 -17.8351123 15.53937012 -17.13842773 14.85131836 C-11.69653639 9.53790987 -6.03761237 4.631765 0 0 Z " fill="#F7A9AC" transform="translate(367,174)"/>
<path d="M0 0 C0.33 0.66 0.66 1.32 1 2 C1.99 2.33 2.98 2.66 4 3 C2.81639563 4.1814679 1.6326527 5.36279729 0.44824219 6.54345703 C-0.93113126 7.93073653 -2.2903701 9.33795012 -3.6484375 10.74609375 C-4.54820312 11.63425781 -5.44796875 12.52242188 -6.375 13.4375 C-7.71691406 14.79681641 -7.71691406 14.79681641 -9.0859375 16.18359375 C-12 18 -12 18 -15.8515625 17.28515625 C-16.89054688 16.86105469 -17.92953125 16.43695313 -19 16 C-16.29210529 13.91700407 -13.52116129 12.05883056 -10.625 10.25 C-6.21444607 7.34851163 -3.23767031 4.15085938 0 0 Z " fill="#6DD3F7" transform="translate(146,309)"/>
<path d="M0 0 C0.66 0.33 1.32 0.66 2 1 C1.443125 1.45375 0.88625 1.9075 0.3125 2.375 C-2.5206384 5.59099494 -4.0701948 8.98071035 -5.8515625 12.85546875 C-7 15 -7 15 -9 16 C-9 14.68 -9 13.36 -9 12 C-9.47050781 12.49371094 -9.94101562 12.98742187 -10.42578125 13.49609375 C-11.04839844 14.13675781 -11.67101562 14.77742187 -12.3125 15.4375 C-12.92738281 16.07558594 -13.54226563 16.71367187 -14.17578125 17.37109375 C-16 19 -16 19 -19 20 C-17.48705075 16.29703581 -15.3194126 14.2799836 -12.3125 11.6875 C-8.03782103 7.9401762 -3.95931189 4.07730462 0 0 Z " fill="#F47075" transform="translate(355,186)"/>
<path d="M0 0 C2.74146784 2.74146784 4.21293716 5.54912004 6 9 C5.67 9.66 5.34 10.32 5 11 C4.01 10.34 3.02 9.68 2 9 C2.99 10.32 3.98 11.64 5 13 C4.67 13.66 4.34 14.32 4 15 C1.36 11.7 -1.28 8.4 -4 5 C-3.34 4.67 -2.68 4.34 -2 4 C-1.01 4.99 -0.02 5.98 1 7 C0.67 4.69 0.34 2.38 0 0 Z " fill="#FCDDA8" transform="translate(177,128)"/>
<path d="M0 0 C0.66 0.33 1.32 0.66 2 1 C-2.62 3.64 -7.24 6.28 -12 9 C-11.67 10.65 -11.34 12.3 -11 14 C-13 12.1875 -13 12.1875 -15 10 C-15 9.01 -15 8.02 -15 7 C-12.54595776 5.80283341 -10.08748321 4.6170654 -7.625 3.4375 C-6.57699219 2.92413086 -6.57699219 2.92413086 -5.5078125 2.40039062 C-3.69947784 1.53969288 -1.85148044 0.76347564 0 0 Z " fill="#FACC7F" transform="translate(135,30)"/>
<path d="M0 0 C0.99 0.33 1.98 0.66 3 1 C-0.80411834 4.91939465 -4.81576108 8.49102731 -9 12 C-6.67660691 7.22929951 -4.48966644 2.99311096 0 0 Z " fill="#F57E82" transform="translate(361,181)"/>
<path d="M0 0 C0.66 0.33 1.32 0.66 2 1 C-5.11389522 9.6309795 -5.11389522 9.6309795 -10 12 C-8.52278578 8.54798361 -6.56205999 6.35038064 -3.875 3.75 C-3.15054687 3.04359375 -2.42609375 2.3371875 -1.6796875 1.609375 C-1.12539063 1.07828125 -0.57109375 0.5471875 0 0 Z " fill="#FAD18C" transform="translate(370,37)"/>
<path d="M0 0 C0.33 1.32 0.66 2.64 1 4 C-2.3 6.97 -5.6 9.94 -9 13 C-9.66 12.67 -10.32 12.34 -11 12 C-10.45730469 11.46890625 -9.91460937 10.9378125 -9.35546875 10.390625 C-8.64003906 9.68421875 -7.92460937 8.9778125 -7.1875 8.25 C-6.47980469 7.55390625 -5.77210938 6.8578125 -5.04296875 6.140625 C-3.17724121 4.18571355 -1.56830358 2.19661447 0 0 Z " fill="#FCDCA7" transform="translate(315,129)"/>
<path d="M0 0 C2.91517292 1.07401108 4.77810176 1.77810176 7 4 C7 5.32 7 6.64 7 8 C5.1875 7.8125 5.1875 7.8125 3 7 C0 2.82142857 0 2.82142857 0 0 Z " fill="#FBC365" transform="translate(179,137)"/>
<path d="M0 0 C-0.33 1.65 -0.66 3.3 -1 5 C-3.31 4.34 -5.62 3.68 -8 3 C-4.93882432 0.37613513 -4.26826873 0 0 0 Z " fill="#61CEF6" transform="translate(135,322)"/>
<path d="M0 0 C0.66 0.33 1.32 0.66 2 1 C1.360625 1.598125 0.72125 2.19625 0.0625 2.8125 C-2.20310389 4.90810337 -2.20310389 4.90810337 -3 8 C-4.65 8.33 -6.3 8.66 -8 9 C-7.04270084 7.87411986 -6.08412105 6.7493285 -5.125 5.625 C-4.59132813 4.99851563 -4.05765625 4.37203125 -3.5078125 3.7265625 C-2.38567993 2.44163349 -1.20628025 1.20628025 0 0 Z " fill="#F4343B" transform="translate(355,186)"/>
<path d="M0 0 C2.1875 0.3125 2.1875 0.3125 4 1 C1.625 2.5625 1.625 2.5625 -1 4 C-1.66 3.67 -2.32 3.34 -3 3 C-1.75 1.4375 -1.75 1.4375 0 0 Z " fill="#B4DA80" transform="translate(100,440)"/>
<path d="M0 0 C2.1875 1.4375 2.1875 1.4375 4 3 C3.67 3.66 3.34 4.32 3 5 C-1.875 3.25 -1.875 3.25 -3 1 C-2.01 0.67 -1.02 0.34 0 0 Z " fill="#AFD876" transform="translate(307,350)"/>
</svg>
